PathFileType	4	(X/Y/Z)	./resultDataOpenSim/trcMotMarkerGrf/sub10/qtm-03-03.trc
DataRate	CameraRate	NumFrames	NumMarkers	Units	OrigDataRate	OrigDataStartFrame	OrigNumFrames
250.000000	250.000000	12	24	m	250.000000	199	528
Frame#	Time	L.Toe.Tip			R.Toe.Tip			L.Ankle.Lat			R.Ankle.Lat			L.Ankle.Med			R.Ankle.Med			L.Heel			R.Heel			L.Knee.Lat			R.Knee.Lat			L.Knee.Med			R.Knee.Med			L.Thigh.Upper			R.Thigh.Upper			L.ASIS			R.ASIS			V.Sacral			L.Acromium			R.Acromium			C7			L.Elbow			R.Elbow			L.Wrist.Lat			R.Wrist.Lat
		X1	Y1	Z1	X2	Y2	Z2	X3	Y3	Z3	X4	Y4	Z4	X5	Y5	Z5	X6	Y6	Z6	X7	Y7	Z7	X8	Y8	Z8	X9	Y9	Z9	X10	Y10	Z10	X11	Y11	Z11	X12	Y12	Z12	X13	Y13	Z13	X14	Y14	Z14	X15	Y15	Z15	X16	Y16	Z16	X17	Y17	Z17	X18	Y18	Z18	X19	Y19	Z19	X20	Y20	Z20	X21	Y21	Z21	X22	Y22	Z22	X23	Y23	Z23	X24	Y24	Z24

199	0.792	0.051304526	-0.008840047	-0.078628761	-0.64994251	0.058151852	-0.011909247	-0.079419497	0.015795483	-0.12923334	-0.6382053	0.20205652	0.037125878	-0.088757429	0.038704801	-0.046560092	-0.59270054	0.17641798	-0.033751262	-0.15067907	-0.011956835	-0.094885311	-0.65299758	0.24216258	-0.019343864	-0.012961278	0.39926245	-0.15441342	-0.30554593	0.36469248	0.1012593	-0.026228407	0.38098607	-0.034046769	-0.23636523	0.3293336	-0.012477993	-0.11787876	0.77641229	-0.23430413	-0.24603841	0.74530751	0.13407328	-0.10182485	0.87535813	-0.14701137	-0.15201272	0.84282381	0.081459188	-0.3256056	0.86907279	-0.080539983	-0.22944081	1.3246057	-0.21232827	-0.25485673	1.3305838	0.11432744	-0.32840797	1.347306	-0.062135632	-0.34434158	1.0068078	-0.24904154	-0.28459114	0.96732321	0.149003	-0.30911333	0.78871838	-0.34681981	-0.063663937	0.86991395	0.22397706
200	0.796	0.051285316	-0.0088705654	-0.078612874	-0.64058129	0.061081661	-0.009677025	-0.079278077	0.015717694	-0.12910924	-0.62617683	0.20531248	0.038308597	-0.088649069	0.038650917	-0.046440887	-0.5807983	0.17884486	-0.03249673	-0.15071472	-0.01191135	-0.094855717	-0.64004892	0.24560763	-0.018157143	-0.010874261	0.39874306	-0.15454783	-0.29319115	0.36440427	0.10267973	-0.023825898	0.38063042	-0.03418179	-0.22389186	0.32955386	-0.011277109	-0.11369659	0.77651657	-0.23477626	-0.23969603	0.74553773	0.13423562	-0.096684362	0.87558687	-0.14763584	-0.14596584	0.8430367	0.081058852	-0.32058573	0.86920161	-0.079420191	-0.22321645	1.3250185	-0.21251783	-0.24830806	1.3311746	0.11410787	-0.32217534	1.3479875	-0.062285804	-0.33678866	1.0064323	-0.24903529	-0.28029159	0.96811585	0.14878724	-0.29905485	0.78878626	-0.34742897	-0.061815555	0.86775081	0.22542196
201	0.8	0.051257676	-0.0088954347	-0.078604585	-0.62997935	0.063980667	-0.0073742943	-0.079161617	0.015646052	-0.12902294	-0.61405956	0.20845251	0.039382779	-0.088544072	0.038607746	-0.046361201	-0.56870077	0.18140016	-0.031340689	-0.15074733	-0.011870332	-0.094852384	-0.62763624	0.24873467	-0.017113197	-0.0093233435	0.39831175	-0.15484154	-0.28062229	0.36433612	0.10404076	-0.0219229	0.38018665	-0.034550265	-0.2115532	0.33004378	-0.010213769	-0.10976758	0.77659724	-0.23525825	-0.23379453	0.74593494	0.13447585	-0.09165079	0.87589931	-0.14828373	-0.14010169	0.84350968	0.080764914	-0.3156188	0.86942366	-0.078151087	-0.21699995	1.3255384	-0.21265215	-0.24185758	1.3318756	0.11390118	-0.31596933	1.3487728	-0.062418506	-0.32922968	1.0061355	-0.24894875	-0.27595998	0.96903531	0.14860398	-0.28881693	0.78901693	-0.34803815	-0.060058875	0.86562976	0.22683429
202	0.804	0.051220001	-0.0089149064	-0.078601579	-0.61817509	0.066784711	-0.0050976764	-0.079073423	0.015576346	-0.12896671	-0.60182289	0.21146855	0.040356745	-0.088454133	0.038574834	-0.04631407	-0.55646353	0.18406204	-0.030296884	-0.15078077	-0.011840335	-0.094871186	-0.61565911	0.25156112	-0.016241492	-0.007993349	0.3979507	-0.15525997	-0.26784987	0.36447807	0.10535918	-0.020210438	0.37969058	-0.034942313	-0.19930333	0.33075998	-0.0092582766	-0.10604002	0.7766655	-0.23575027	-0.22806592	0.74642323	0.13465627	-0.086708153	0.87630207	-0.14895889	-0.13442008	0.84424349	0.080579697	-0.31055205	0.86969735	-0.076921281	-0.21079242	1.3261772	-0.21273046	-0.23549802	1.3326792	0.11369937	-0.30979619	1.3496487	-0.062540277	-0.32157217	1.0059221	-0.24877068	-0.27173529	0.97017387	0.14857385	-0.27841006	0.78938993	-0.34859405	-0.058391058	0.86356179	0.22822276
203	0.808	0.051170727	-0.0089282802	-0.078601469	-0.6052868	0.069387839	-0.002861067	-0.07901472	0.015505898	-0.12892706	-0.58942962	0.21436866	0.041233787	-0.088389739	0.038549469	-0.046284381	-0.54413458	0.18676974	-0.029362411	-0.15081864	-0.011823938	-0.094900475	-0.60396469	0.25410653	-0.015538851	-0.0065070753	0.39766608	-0.15573038	-0.25490462	0.36481862	0.10664552	-0.018511735	0.37918289	-0.035230721	-0.18705977	0.33168914	-0.008373013	-0.10245501	0.7767288	-0.2362461	-0.22215242	0.7469512	0.13454891	-0.081831465	0.87679538	-0.14966433	-0.1289125	0.84521821	0.08050688	-0.30532291	0.87002093	-0.075913194	-0.20459953	1.3269348	-0.21276909	-0.22922735	1.3335813	0.11349982	-0.30366439	1.3506059	-0.062660885	-0.31373136	1.0058174	-0.24859198	-0.26772914	0.97159985	0.14879182	-0.26789941	0.78988393	-0.34903954	-0.056825749	0.86155236	0.22959132
204	0.812	0.051109735	-0.0089350814	-0.078601832	-0.59141676	0.071736929	-0.00064185996	-0.078983753	0.015437568	-0.12889011	-0.57691542	0.21714033	0.041985435	-0.08835447	0.038527352	-0.046255102	-0.53166982	0.18945911	-0.028516134	-0.15086194	-0.011820068	-0.094926175	-0.59238967	0.25637024	-0.01498963	-0.0047548347	0.39750309	-0.15614255	-0.2418349	0.36534964	0.10790774	-0.016869008	0.37869125	-0.035427776	-0.17477268	0.33282938	-0.0075331753	-0.098983574	0.7767956	-0.23671192	-0.21592465	0.74753857	0.1340521	-0.077006876	0.87737513	-0.1503914	-0.12356552	0.84639943	0.080551169	-0.30006819	0.87046638	-0.075139468	-0.19843552	1.3277963	-0.21279456	-0.22305579	1.3345847	0.1133065	-0.29758102	1.3516353	-0.062790269	-0.30575397	1.0058377	-0.24847595	-0.2638616	0.97326671	0.14917787	-0.25735719	0.79049611	-0.34934869	-0.055374319	0.85960597	0.23093901
205	0.816	0.051040211	-0.0089365302	-0.078600834	-0.57664619	0.073878214	0.0015810026	-0.078977343	0.015377203	-0.12884638	-0.56444299	0.21969505	0.042539837	-0.088343983	0.038504567	-0.046213815	-0.51900426	0.19207451	-0.0277299	-0.15090957	-0.011826313	-0.094935625	-0.58081964	0.25834111	-0.014566495	-0.0029972547	0.39745135	-0.15639731	-0.2287013	0.36605872	0.10914753	-0.01531368	0.3782404	-0.035549957	-0.1624505	0.33417969	-0.0067420092	-0.0956344	0.77687891	-0.23708983	-0.20948881	0.74826925	0.13319937	-0.072240293	0.87803736	-0.1511237	-0.11836725	0.84774662	0.080715834	-0.29497818	0.87111598	-0.074501137	-0.19231325	1.3287497	-0.21282351	-0.21699461	1.3356944	0.11312795	-0.29154868	1.3527317	-0.062935822	-0.29774778	1.0059695	-0.2482876	-0.2599296	0.97506489	0.14952829	-0.24679839	0.79124021	-0.34954187	-0.054043761	0.85772862	0.23226428
206	0.82	0.050967881	-0.0089347646	-0.078598632	-0.56112867	0.075887852	0.0038169729	-0.078991083	0.015329247	-0.1287923	-0.55216591	0.22192338	0.042848915	-0.088349434	0.038479134	-0.046157712	-0.50611679	0.19457255	-0.02698638	-0.15096034	-0.011837801	-0.094920026	-0.56920959	0.26000702	-0.014233666	-0.0015735388	0.39740091	-0.15648327	-0.21555877	0.36692791	0.11035673	-0.01376256	0.3778618	-0.035557025	-0.15011235	0.33573867	-0.0060082912	-0.092400679	0.77699765	-0.2373326	-0.20300435	0.74921755	0.13210889	-0.067543039	0.87878106	-0.1518446	-0.11330793	0.8492194	0.080995479	-0.29009993	0.87199104	-0.073905975	-0.1862338	1.3297948	-0.21285705	-0.21104578	1.3369115	0.11297229	-0.28556654	1.3538954	-0.063098724	-0.28975244	1.0061917	-0.24783428	-0.2558421	0.97696578	0.1497333	-0.23617151	0.79213419	-0.34968529	-0.052832654	0.85592868	0.23356713
207	0.824	0.050897623	-0.0089306368	-0.078597406	-0.5451022	0.077786913	0.0060637706	-0.079017381	0.015295882	-0.12872848	-0.5399639	0.22384141	0.043003111	-0.088360817	0.038454648	-0.046093529	-0.4930194	0.19693106	-0.026302343	-0.15101423	-0.011847142	-0.094876154	-0.55754213	0.26136054	-0.013956557	-0.00056563113	0.39725605	-0.15646938	-0.20242563	0.36794849	0.11152161	-0.012146686	0.3775752	-0.035421128	-0.1377424	0.33750792	-0.0053244992	-0.089227116	0.7771737	-0.23742722	-0.19673157	0.75037385	0.13113372	-0.062913162	0.87960496	-0.15253838	-0.10837338	0.85078524	0.081370408	-0.28533644	0.8730593	-0.073310179	-0.1801881	1.3309357	-0.21288582	-0.20520353	1.3382345	0.1128433	-0.27963154	1.3551305	-0.063274419	-0.28183096	1.0064996	-0.24717296	-0.25168198	0.97903021	0.14984499	-0.22541191	0.79318905	-0.34984567	-0.051733199	0.85421511	0.23484908
208	0.828	0.050831027	-0.0089235359	-0.078599268	-0.52876964	0.079540088	0.0083211508	-0.079047211	0.015277184	-0.12865897	-0.52748448	0.22559571	0.043197841	-0.088369387	0.038440159	-0.046031816	-0.47972262	0.19915768	-0.025738214	-0.15107097	-0.011848079	-0.094807726	-0.54576991	0.26241323	-0.013705176	0.00018588334	0.39701973	-0.15642787	-0.1892834	0.36913513	0.11263135	-0.010612946	0.37735432	-0.035230342	-0.12529884	0.3394919	-0.0046729064	-0.086043651	0.7774218	-0.23738649	-0.19095232	0.75165802	0.13071033	-0.058330955	0.88050317	-0.15318941	-0.10354065	0.85242323	0.081811467	-0.28058061	0.87428623	-0.072727325	-0.17416749	1.3321708	-0.2128962	-0.19946625	1.3396589	0.11274162	-0.2737385	1.356441	-0.06345677	-0.27414303	1.0068915	-0.24654644	-0.24757526	0.98128113	0.14995891	-0.21449969	0.79440662	-0.35003967	-0.050739729	0.8525958	0.2361139
209	0.832	0.050767301	-0.0089132142	-0.078604772	-0.51222817	0.081104595	0.010603599	-0.079075168	0.0152712	-0.12859159	-0.51451126	0.22729276	0.04354976	-0.08837083	0.03844288	-0.045979782	-0.46623198	0.2012798	-0.025346313	-0.15112869	-0.011837093	-0.094725808	-0.53382834	0.2631922	-0.013457157	0.00085999216	0.39674327	-0.1563928	-0.17612222	0.3705209	0.11368318	-0.0094486981	0.37713916	-0.03514682	-0.11275313	0.34168674	-0.0040361248	-0.082802286	0.77774278	-0.23723363	-0.185645	0.75302104	0.13088278	-0.053774374	0.88146472	-0.15378469	-0.098784307	0.85412147	0.08229001	-0.27577908	0.87565921	-0.072230028	-0.16817577	1.3334922	-0.21288338	-0.19383706	1.3411756	0.11266414	-0.26788303	1.3578246	-0.063638365	-0.26682414	1.0073571	-0.24614792	-0.24357442	0.9836515	0.15011968	-0.20346192	0.79578548	-0.35024414	-0.049850168	0.8510782	0.23736553
210	0.836	0.050706301	-0.0089003659	-0.078613176	-0.49551149	0.082458766	0.012938369	-0.079100823	0.015276513	-0.1285356	-0.50111071	0.22890711	0.044033531	-0.088362623	0.038464982	-0.045936033	-0.45257977	0.20330304	-0.025075974	-0.15118521	-0.011812127	-0.09464593	-0.52169216	0.26371335	-0.013200495	0.0015454498	0.39646108	-0.15636898	-0.16296508	0.37212727	0.11467583	-0.0087482487	0.37689961	-0.035233926	-0.10011769	0.34407407	-0.0034173549	-0.079478335	0.77812801	-0.23699511	-0.18051499	0.7544962	0.13131572	-0.049242954	0.88247636	-0.1543225	-0.094085285	0.85587457	0.082782966	-0.27089922	0.87717349	-0.071904602	-0.16222997	1.3348925	-0.2128581	-0.18830911	1.3427723	0.11260218	-0.2620647	1.3592742	-0.063813073	-0.25986804	1.007889	-0.2460802	-0.2396466	0.98606372	0.15032475	-0.1923362	0.79732561	-0.35043617	-0.049060528	0.84966986	0.23860393
